<svg width="130" height="130" viewBox="0 0 130 130" fill="none" xmlns="http://www.w3.org/2000/svg">
<g clip-path="url(#clip0_4974_11896)">
<rect width="130" height="130" rx="2.16667" fill="#EAECF5"/>
<g clip-path="url(#clip1_4974_11896)">
<path d="M117.114 14.0186H-149.688V177.984H117.114V14.0186Z" fill="white"/>
<path d="M117.113 177.984C116.96 178.049 -149.769 178.173 -149.928 178.219C-150.094 178.134 -149.908 14.1625 -150.027 14.0188V13.692H-149.696C-149.636 13.6136 117.239 13.875 117.305 13.8227C117.438 13.9665 117.007 177.814 117.106 177.99L117.113 177.984ZM117.113 177.984C117.153 178.088 116.642 13.1431 117.113 14.2148L-149.689 14.3455L-149.357 14.0188C-149.384 13.9077 -149.145 179.023 -149.689 177.749L117.113 177.984Z" fill="#EAECF0"/>
<path d="M117.11 14.0195H-149.719V19.9531H117.11V14.0195Z" fill="#EAECF5"/>
<path d="M117.11 19.9521H-149.719V30.0877H117.11V19.9521Z" fill="#EAECF5"/>
<path d="M98.603 22.0176H-117.32V28.0296H98.603V22.0176Z" fill="white"/>
<path d="M98.6627 28.0952H-117.387V21.959H98.6627V28.0952ZM-117.261 27.971H98.5366V22.0831H-117.261V27.971Z" fill="#EAECF0"/>
<path d="M107.441 27.4874C107.182 27.6443 106.904 27.7619 106.592 27.8338C105.795 28.0233 104.992 27.8795 104.349 27.4809C103.718 27.0953 103.227 26.4745 103.041 25.7034C102.657 24.1481 103.625 22.5798 105.198 22.2008C106.777 21.8217 108.37 22.7758 108.755 24.3246C109.067 25.5727 108.496 26.8339 107.441 27.4744V27.4874Z" fill="#EAECF0"/>
<path d="M106.784 24.6962C106.784 25.1797 106.386 25.5784 105.888 25.5784C105.39 25.5784 104.992 25.1863 104.992 24.6962C104.992 24.2061 105.39 23.814 105.888 23.814C106.386 23.814 106.784 24.2061 106.784 24.6962Z" fill="white"/>
<path d="M107.44 27.1212V27.4872C107.181 27.644 106.903 27.7617 106.591 27.8335C105.794 28.0231 104.991 27.8793 104.348 27.4807V27.1212C104.348 26.2848 105.038 25.5986 105.894 25.5986C106.75 25.5986 107.44 26.2848 107.44 27.1212Z" fill="white"/>
<path d="M117.118 40.1382H112.387V177.984H117.118V40.1382Z" fill="#EAECF0"/>
<path d="M114.752 95.5465C114.075 95.5465 113.531 95.0107 113.531 94.3441V42.2747C113.531 41.6081 114.075 41.0723 114.752 41.0723C115.429 41.0723 115.973 41.6081 115.973 42.2747V94.3376C115.973 95.0041 115.429 95.54 114.752 95.54V95.5465Z" fill="#D0D5DD"/>
<path d="M112.395 40.1392H-149.676V177.985H112.395V40.1392Z" fill="white"/>
<path d="M112.396 177.985C112.137 177.736 -150.199 178.717 -149.927 177.985C-149.595 177.658 -150.637 39.4597 -149.674 39.8126C-149.608 39.7472 112.522 39.989 112.588 39.9432C112.728 40.0805 112.29 177.815 112.396 177.985ZM112.396 177.985L112.203 40.1393C113.438 40.649 -149.953 40.3092 -149.674 40.466C-148.958 38.4272 -149.575 178.436 -149.422 177.985C-151.148 177.423 112.84 178.115 112.396 177.985Z" fill="#EAECF0"/>
<path d="M112.395 40.1392H-149.676V64.795H112.395V40.1392Z" fill="#EAECF5"/>
<path d="M-0.897213 31.2393H-47.2765L-49.3867 40.1397H1.21305L-0.897213 31.2393Z" fill="#EAECF5"/>
<path d="M33.5214 124.609H-66.1055V137.992H33.5214V124.609Z" fill="white" stroke="#EAECF0" stroke-width="1.37155" stroke-miterlimit="10"/>
<path d="M33.5125 124.609H19.9219V137.992H33.5125V124.609Z" fill="#EAECF0"/>
<path d="M28.5547 127.935C27.4001 126.459 25.25 126.178 23.7503 127.315C22.2505 128.452 21.9652 130.569 23.1198 132.046C24.155 133.372 25.9932 133.732 27.4465 132.974C27.6124 132.889 27.7717 132.784 27.9243 132.673C28.203 132.464 28.4419 132.216 28.6344 131.948C29.4838 130.771 29.4971 129.144 28.5614 127.942L28.5547 127.935ZM27.0815 131.588C26.9289 131.706 26.763 131.797 26.5905 131.863C25.761 132.19 24.7788 131.954 24.2081 131.216C23.518 130.334 23.6905 129.066 24.5864 128.386C25.4822 127.707 26.7696 127.877 27.4598 128.759C27.9243 129.353 27.9973 130.118 27.7252 130.765C27.5925 131.079 27.3735 131.366 27.0815 131.588Z" fill="white"/>
<path d="M15.4908 110.108H-48.0625V114.454H15.4908V110.108Z" fill="#EAECF5"/>
<path d="M7.62548 33.7026H7.1875V37.6693H7.62548V33.7026Z" fill="#EAECF0"/>
<path d="M9.43359 35.9044V35.4731H5.40552V35.9044H9.43359Z" fill="#EAECF0"/>
<path d="M112.395 40.1392H-149.676V177.985H112.395V40.1392Z" fill="white"/>
<path d="M112.396 177.985C112.137 177.736 -150.199 178.717 -149.927 177.985C-149.595 177.658 -150.637 39.4597 -149.674 39.8126C-149.608 39.7472 112.522 39.989 112.588 39.9432C112.728 40.0805 112.29 177.815 112.396 177.985ZM112.396 177.985L112.203 40.1393C113.438 40.649 -149.953 40.3092 -149.674 40.466C-148.958 38.4272 -149.575 178.436 -149.422 177.985C-151.148 177.423 112.84 178.115 112.396 177.985Z" fill="#EAECF0"/>
<path d="M112.395 40.1387H-149.676V64.7945H112.395V40.1387Z" fill="#EAECF5"/>
<path d="M33.5214 124.609H-66.1055V137.992H33.5214V124.609Z" fill="white" stroke="#EAECF0" stroke-width="1.37155" stroke-miterlimit="10"/>
<path d="M33.5125 124.609H19.9219V137.992H33.5125V124.609Z" fill="#EAECF0"/>
<path d="M28.5547 127.935C27.4001 126.459 25.25 126.178 23.7503 127.315C22.2505 128.452 21.9652 130.569 23.1198 132.046C24.155 133.372 25.9932 133.732 27.4465 132.974C27.6124 132.889 27.7717 132.784 27.9243 132.673C28.203 132.464 28.4419 132.216 28.6344 131.948C29.4838 130.771 29.4971 129.144 28.5614 127.942L28.5547 127.935ZM27.0815 131.588C26.9289 131.706 26.763 131.797 26.5905 131.863C25.761 132.19 24.7788 131.954 24.2081 131.216C23.518 130.334 23.6905 129.066 24.5864 128.386C25.4822 127.707 26.7696 127.877 27.4598 128.759C27.9243 129.353 27.9973 130.118 27.7252 130.765C27.5925 131.079 27.3735 131.366 27.0815 131.588Z" fill="white"/>
<path d="M15.4908 110.108H-48.0625V114.454H15.4908V110.108Z" fill="#EAECF5"/>
<path d="M112.395 40.1392H-149.676V177.985H112.395V40.1392Z" fill="white"/>
<path d="M112.396 177.985C112.137 177.736 -150.199 178.717 -149.927 177.985C-149.595 177.658 -150.637 39.4597 -149.674 39.8126C-149.608 39.7472 112.522 39.989 112.588 39.9432C112.728 40.0805 112.29 177.815 112.396 177.985ZM112.396 177.985L112.203 40.1393C113.438 40.649 -149.953 40.3092 -149.674 40.466C-148.958 38.4272 -149.575 178.436 -149.422 177.985C-151.148 177.423 112.84 178.115 112.396 177.985Z" fill="#D5D9EB"/>
<path d="M112.395 40.1392H-149.676V57.5871H112.395V40.1392Z" fill="#D5D9EB"/>
<path d="M41.024 75.9546H-101.617V81.5149H41.024V75.9546Z" fill="#B3B8DB"/>
<path d="M41.024 82.6279H-101.617V88.1883H41.024V82.6279Z" fill="#B3B8DB"/>
<path d="M41.024 89.3008H-101.617V94.8611H41.024V89.3008Z" fill="#B3B8DB"/>
<path d="M41.696 98.0967H-101.477V100.766H41.696V98.0967Z" fill="#EAECF5"/>
<path d="M41.696 110.173H-101.477V112.842H41.696V110.173Z" fill="#EAECF5"/>
<path d="M41.696 123.196H-101.477V125.865H41.696V123.196Z" fill="#EAECF5"/>
<path d="M41.696 116.688H-101.477V119.357H41.696V116.688Z" fill="#EAECF5"/>
<path d="M41.696 129.713H-101.477V132.382H41.696V129.713Z" fill="#EAECF5"/>
<path opacity="0.6" d="M101.322 46.9946H-135.531V50.9809H101.322V46.9946Z" fill="white"/>
<rect x="57.2188" y="14.6548" width="60.1274" height="132.148" fill="#EAECF5"/>
<rect x="57.2188" y="14.6548" width="60.1274" height="12.989" fill="#D5D9EB"/>
<rect x="59.7578" y="33.3062" width="55.051" height="8.80256" rx="1.12224" fill="white"/>
<rect x="59.7578" y="44.5859" width="55.051" height="53.5107" rx="1.12224" fill="white"/>
<g filter="url(#filter0_d_4974_11896)">
<rect x="60.875" y="104.467" width="26.8555" height="13.4277" rx="2.91548" fill="#5080FF"/>
<rect x="59.2969" y="102.889" width="30.0117" height="16.584" rx="4.49361" stroke="#5080FF" stroke-opacity="0.2" stroke-width="3.15625"/>
<path d="M69.9738 110.16C69.9572 109.993 69.8861 109.863 69.7605 109.77C69.6349 109.678 69.4644 109.632 69.249 109.632C69.1027 109.632 68.9792 109.652 68.8784 109.694C68.7776 109.734 68.7003 109.79 68.6465 109.861C68.594 109.933 68.5678 110.015 68.5678 110.106C68.565 110.182 68.5809 110.248 68.6154 110.305C68.6513 110.361 68.7003 110.41 68.7624 110.452C68.8245 110.492 68.8963 110.527 68.9778 110.557C69.0592 110.586 69.1462 110.611 69.2387 110.632L69.6197 110.723C69.8047 110.764 69.9745 110.819 70.1291 110.888C70.2837 110.957 70.4176 111.042 70.5308 111.143C70.644 111.244 70.7316 111.363 70.7937 111.499C70.8572 111.636 70.8897 111.793 70.8911 111.969C70.8897 112.229 70.8234 112.454 70.6923 112.644C70.5625 112.833 70.3748 112.981 70.1291 113.085C69.8847 113.189 69.59 113.241 69.2449 113.241C68.9025 113.241 68.6044 113.188 68.3504 113.083C68.0977 112.978 67.9003 112.823 67.7582 112.617C67.6174 112.41 67.5435 112.154 67.5366 111.849H68.4042C68.4139 111.991 68.4546 112.11 68.5264 112.205C68.5995 112.299 68.6969 112.37 68.8183 112.419C68.9412 112.466 69.0799 112.489 69.2345 112.489C69.3864 112.489 69.5182 112.467 69.63 112.423C69.7432 112.379 69.8309 112.317 69.893 112.239C69.9551 112.16 69.9862 112.069 69.9862 111.967C69.9862 111.872 69.9579 111.792 69.9013 111.727C69.8461 111.662 69.7646 111.607 69.657 111.561C69.5507 111.516 69.4202 111.474 69.2656 111.437L68.8038 111.321C68.4463 111.234 68.164 111.098 67.9569 110.913C67.7499 110.728 67.647 110.479 67.6484 110.166C67.647 109.909 67.7154 109.685 67.8534 109.493C67.9928 109.301 68.184 109.151 68.427 109.043C68.6699 108.936 68.946 108.882 69.2552 108.882C69.57 108.882 69.8447 108.936 70.0794 109.043C70.3154 109.151 70.499 109.301 70.6302 109.493C70.7613 109.685 70.8289 109.907 70.8331 110.16H69.9738ZM72.3845 113.241C72.1816 113.241 72.0008 113.206 71.842 113.135C71.6833 113.063 71.5576 112.958 71.4652 112.818C71.374 112.677 71.3285 112.502 71.3285 112.292C71.3285 112.116 71.3609 111.967 71.4258 111.847C71.4907 111.727 71.579 111.63 71.6909 111.557C71.8027 111.484 71.9297 111.429 72.0719 111.392C72.2154 111.354 72.3659 111.328 72.5233 111.313C72.7082 111.294 72.8573 111.276 72.9705 111.259C73.0837 111.241 73.1659 111.215 73.2169 111.18C73.268 111.146 73.2935 111.095 73.2935 111.027V111.015C73.2935 110.884 73.2521 110.782 73.1693 110.71C73.0879 110.639 72.9719 110.603 72.8214 110.603C72.6627 110.603 72.5364 110.638 72.4425 110.708C72.3486 110.777 72.2865 110.864 72.2561 110.969L71.4403 110.903C71.4817 110.71 71.5632 110.543 71.6846 110.402C71.8061 110.26 71.9628 110.151 72.1547 110.075C72.3479 109.997 72.5716 109.959 72.8256 109.959C73.0023 109.959 73.1714 109.979 73.3329 110.021C73.4958 110.062 73.64 110.126 73.7657 110.213C73.8927 110.3 73.9927 110.412 74.0659 110.549C74.1391 110.684 74.1756 110.846 74.1756 111.035V113.181H73.3391V112.74H73.3142C73.2632 112.839 73.1948 112.927 73.1093 113.003C73.0237 113.077 72.9208 113.136 72.8007 113.179C72.6806 113.22 72.5419 113.241 72.3845 113.241ZM72.6371 112.632C72.7669 112.632 72.8815 112.606 72.9809 112.555C73.0803 112.503 73.1583 112.432 73.2149 112.344C73.2715 112.256 73.2998 112.156 73.2998 112.044V111.706C73.2721 111.724 73.2342 111.741 73.1859 111.756C73.1389 111.77 73.0858 111.783 73.0264 111.795C72.9671 111.806 72.9077 111.817 72.8484 111.826C72.789 111.835 72.7352 111.842 72.6868 111.849C72.5833 111.864 72.4929 111.889 72.4156 111.922C72.3383 111.955 72.2782 112 72.2354 112.056C72.1926 112.112 72.1712 112.181 72.1712 112.263C72.1712 112.383 72.2147 112.475 72.3017 112.539C72.39 112.601 72.5019 112.632 72.6371 112.632ZM77.7113 110L76.5993 113.181H75.6054L74.4935 110H75.4253L76.0858 112.276H76.119L76.7774 110H77.7113ZM79.5097 113.243C79.1825 113.243 78.9009 113.177 78.6648 113.044C78.4302 112.91 78.2493 112.721 78.1223 112.477C77.9953 112.231 77.9318 111.94 77.9318 111.605C77.9318 111.278 77.9953 110.991 78.1223 110.744C78.2493 110.496 78.4281 110.304 78.6586 110.166C78.8905 110.028 79.1625 109.959 79.4745 109.959C79.6843 109.959 79.8796 109.993 80.0604 110.06C80.2427 110.126 80.4014 110.227 80.5367 110.36C80.6734 110.494 80.7797 110.663 80.8556 110.866C80.9315 111.067 80.9695 111.303 80.9695 111.574V111.816H78.2838V111.269H80.1391C80.1391 111.142 80.1115 111.03 80.0563 110.932C80.0011 110.834 79.9245 110.757 79.8265 110.702C79.7298 110.645 79.6173 110.617 79.4889 110.617C79.355 110.617 79.2363 110.648 79.1328 110.71C79.0306 110.771 78.9506 110.853 78.8926 110.957C78.8346 111.059 78.8049 111.173 78.8036 111.298V111.818C78.8036 111.976 78.8325 112.112 78.8905 112.226C78.9499 112.341 79.0334 112.429 79.1411 112.491C79.2487 112.553 79.3764 112.584 79.5241 112.584C79.6222 112.584 79.7119 112.571 79.7933 112.543C79.8748 112.515 79.9445 112.474 80.0025 112.419C80.0604 112.363 80.1046 112.296 80.135 112.216L80.9508 112.27C80.9094 112.466 80.8245 112.637 80.6961 112.783C80.5691 112.928 80.4049 113.041 80.2033 113.123C80.0032 113.203 79.7719 113.243 79.5097 113.243Z" fill="white"/>
</g>
<path d="M84.1516 121.457L85.8509 125.505L84.1557 126.196L82.4483 122.124L79.6445 124.268V112.869L87.7322 120.93L84.1516 121.457Z" fill="#293056"/>
<path d="M79.7453 111.353C79.5875 111.101 79.5511 110.85 79.543 110.598C79.547 110.347 79.5834 110.095 79.7453 109.844C79.9071 110.095 79.9435 110.347 79.9476 110.598C79.9395 110.85 79.9031 111.101 79.7453 111.353Z" fill="#293056"/>
<path d="M78.4281 111.891C78.1327 111.823 77.9304 111.672 77.7443 111.496C77.5663 111.312 77.4125 111.109 77.3438 110.821C77.6391 110.889 77.8454 111.041 78.0275 111.217C78.2015 111.4 78.3593 111.604 78.4281 111.891Z" fill="#293056"/>
<path d="M77.877 113.194C77.6221 113.35 77.3672 113.386 77.1123 113.394C76.8574 113.39 76.6025 113.354 76.3477 113.194C76.6025 113.035 76.8574 112.999 77.1123 112.995C77.3672 113.003 77.6221 113.039 77.877 113.194Z" fill="#293056"/>
<path d="M78.4281 114.499C78.3593 114.79 78.2055 114.99 78.0275 115.173C77.8414 115.349 77.6351 115.501 77.3438 115.569C77.4125 115.277 77.5663 115.073 77.7443 114.894C77.9304 114.722 78.1368 114.566 78.4281 114.499Z" fill="#293056"/>
<path d="M81.6094 113.194C81.8643 113.039 82.1192 113.003 82.3741 112.995C82.6289 112.999 82.8838 113.035 83.1387 113.194C82.8838 113.354 82.6289 113.39 82.3741 113.394C82.1192 113.386 81.8643 113.35 81.6094 113.194Z" fill="#293056"/>
<path d="M81.0703 111.891C81.1391 111.6 81.2928 111.4 81.4709 111.217C81.657 111.041 81.8633 110.889 82.1546 110.821C82.0858 111.113 81.9321 111.316 81.7541 111.496C81.568 111.668 81.3616 111.823 81.0703 111.891Z" fill="#293056"/>
<path d="M111.724 48.0703H63.0078V49.7537H111.724V48.0703Z" fill="#EAECF5"/>
<path d="M111.724 51.998H63.0078V53.6814H111.724V51.998Z" fill="#EAECF5"/>
<path d="M111.724 55.9258H63.0078V57.6091H111.724V55.9258Z" fill="#EAECF5"/>
<path d="M111.724 59.854H63.0078V61.5374H111.724V59.854Z" fill="#EAECF5"/>
<path d="M111.724 63.7817H63.0078V65.4651H111.724V63.7817Z" fill="#EAECF5"/>
<path d="M111.724 67.7095H63.0078V69.3928H111.724V67.7095Z" fill="#EAECF5"/>
<path d="M111.724 71.6372H63.0078V73.3206H111.724V71.6372Z" fill="#EAECF5"/>
<path d="M111.724 75.5649H63.0078V77.2483H111.724V75.5649Z" fill="#EAECF5"/>
<path d="M111.724 79.4932H63.0078V81.1765H111.724V79.4932Z" fill="#EAECF5"/>
<path d="M84.247 83.4209H63.0078V85.1043H84.247V83.4209Z" fill="#EAECF5"/>
<path d="M92.2035 36.8906H63.0078V39.1351H92.2035V36.8906Z" fill="#D5D9EB"/>
</g>
<rect x="-149.763" y="14.0211" width="266.766" height="163.9" rx="2.40021" stroke="#4E5BA6" stroke-width="0.685775"/>
</g>
<defs>
<filter id="filter0_d_4974_11896" x="56.9899" y="100.946" width="34.6257" height="21.198" filterUnits="userSpaceOnUse" color-interpolation-filters="sRGB">
<feFlood flood-opacity="0" result="BackgroundImageFix"/>
<feColorMatrix in="SourceAlpha" type="matrix" values="0 0 0 0 0 0 0 0 0 0 0 0 0 0 0 0 0 0 127 0" result="hardAlpha"/>
<feOffset dy="0.364435"/>
<feGaussianBlur stdDeviation="0.364435"/>
<feColorMatrix type="matrix" values="0 0 0 0 0.0627451 0 0 0 0 0.0941176 0 0 0 0 0.156863 0 0 0 0.05 0"/>
<feBlend mode="normal" in2="BackgroundImageFix" result="effect1_dropShadow_4974_11896"/>
<feBlend mode="normal" in="SourceGraphic" in2="effect1_dropShadow_4974_11896" result="shape"/>
</filter>
<clipPath id="clip0_4974_11896">
<rect width="130" height="130" rx="2.16667" fill="white"/>
</clipPath>
<clipPath id="clip1_4974_11896">
<rect x="-150.105" y="13.6782" width="267.452" height="164.586" rx="2.7431" fill="white"/>
</clipPath>
</defs>
</svg>
