<svg width="292" height="193" viewBox="0 0 292 193" fill="none" xmlns="http://www.w3.org/2000/svg">
<path d="M292 185.643H0V192.411H292V185.643Z" fill="#EAECF0"/>
<path d="M273.633 132.608H204.984V185.557H273.633V132.608Z" fill="#EAECF0"/>
<path d="M256.437 185.181C256.345 185.181 256.266 173.376 256.266 158.822C256.266 144.268 256.345 132.463 256.437 132.463C256.529 132.463 256.608 144.262 256.608 158.822C256.608 173.383 256.529 185.181 256.437 185.181Z" fill="#D0D5DD"/>
<path d="M267.815 173.508H262.555V179.46H267.815V173.508Z" fill="#F9FAFB"/>
<path d="M233.731 132.747H225.934V144.044H233.731V132.747Z" fill="#D0D5DD"/>
<path d="M233.731 174.101H225.934V185.399H233.731V174.101Z" fill="#D0D5DD"/>
<path d="M104.378 118.146H17.4023V185.226H104.378V118.146Z" fill="#EAECF0"/>
<path d="M82.5902 184.75C82.4974 184.75 82.418 169.796 82.418 151.359C82.418 132.921 82.4974 117.96 82.5902 117.96C82.6829 117.96 82.7623 132.908 82.7623 151.359C82.7623 169.809 82.6829 184.75 82.5902 184.75Z" fill="#D0D5DD"/>
<path d="M97.005 169.955H90.3359V177.492H97.005V169.955Z" fill="#F2F4F7"/>
<path d="M53.8185 118.318H43.9375V132.63H53.8185V118.318Z" fill="#D0D5DD"/>
<path d="M53.8185 170.71H43.9375V185.022H53.8185V170.71Z" fill="#D0D5DD"/>
<path d="M181.395 0.12583C181.395 0.12583 181.154 0.125835 180.699 0.116909C180.235 0.099056 179.556 0.0633457 178.655 0.12583C176.869 0.22402 174.2 0.563226 171.049 1.8754C167.934 3.18757 164.292 5.51734 161.391 9.4003C159.954 11.3373 158.749 13.6582 158.017 16.3003C157.312 18.9425 157.071 21.8704 157.41 24.8875C157.794 27.8957 158.713 31.002 160.4 33.8584C161.239 35.2867 162.23 36.6702 163.435 37.8842C164.605 39.1428 165.988 40.2497 167.541 41.0977C169.095 41.9368 170.871 42.4723 172.692 42.392C174.495 42.3295 176.361 41.6958 177.682 40.3836C179.012 39.0714 179.672 37.1523 179.672 35.242C179.681 33.3139 179.012 31.3948 177.86 29.7702C175.539 26.5121 171.799 24.3251 167.809 23.1379C163.783 21.9686 159.365 21.9329 155.134 22.9594C153.027 23.5039 150.965 24.3162 149.028 25.3874C147.091 26.4674 145.333 27.8778 143.788 29.5024C143.422 29.9309 143.003 30.3147 142.682 30.7699L141.673 32.1267C141.084 33.0908 140.486 34.0548 140.03 35.1081C139.084 37.179 138.424 39.4017 138.093 41.6868C137.495 46.2571 138.049 50.9702 139.897 55.0763C141.682 59.1914 144.726 62.7262 148.519 64.8507C150.412 65.904 152.5 66.5913 154.625 66.7073C156.741 66.8412 158.856 66.2967 160.65 65.2613C162.444 64.2348 163.944 62.6816 164.73 60.8249C165.506 58.9593 165.497 56.8348 164.819 54.9871C164.158 53.1215 162.909 51.5237 161.463 50.2383C160.008 48.9618 158.303 47.9977 156.526 47.3729C152.929 46.1946 149.091 46.2571 145.663 47.1855C142.226 48.1227 139.156 49.8901 136.746 52.1574C134.344 54.4336 132.657 57.2276 131.64 60.0751C129.578 65.8236 130.104 71.6525 131.872 76.1157C133.693 80.6146 136.585 83.8102 139.227 85.9257C141.896 88.0591 144.315 89.2106 145.984 89.8623C146.823 90.1836 147.466 90.4068 147.912 90.5317C148.35 90.6656 148.573 90.7549 148.573 90.7549C148.573 90.7549 148.341 90.7013 147.894 90.5853C147.448 90.4782 146.797 90.2639 145.94 89.9604C144.262 89.3356 141.807 88.2019 139.102 86.0775C136.424 83.9709 133.487 80.7574 131.622 76.2228C129.81 71.715 129.247 65.8147 131.318 59.9769C132.345 57.0758 134.05 54.2373 136.487 51.9075C138.932 49.5956 142.048 47.7835 145.547 46.8284C149.037 45.8822 152.947 45.8019 156.651 46.998C158.481 47.6407 160.231 48.6226 161.73 49.9348C163.221 51.2469 164.515 52.8983 165.212 54.8532C165.917 56.7902 165.944 59.0307 165.122 61.0034C164.292 62.9761 162.73 64.5829 160.864 65.663C158.999 66.7341 156.794 67.3054 154.598 67.1715C152.402 67.0555 150.242 66.3503 148.296 65.2613C144.404 63.0833 141.298 59.4681 139.477 55.2727C137.594 51.0773 137.031 46.2839 137.638 41.6333C137.977 39.3035 138.647 37.0362 139.62 34.9296C140.084 33.8584 140.7 32.8765 141.298 31.8857L142.324 30.4932C142.655 30.0201 143.083 29.6274 143.458 29.1989C145.038 27.5386 146.841 26.1015 148.814 25.0035C150.787 23.9145 152.884 23.0933 155.036 22.5309C159.347 21.4865 163.846 21.5223 167.952 22.7184C172.022 23.9324 175.834 26.155 178.235 29.5292C179.422 31.2073 180.128 33.2247 180.11 35.242C180.11 37.2504 179.413 39.2767 177.985 40.6782C176.566 42.0796 174.602 42.7401 172.719 42.7937C170.817 42.8651 168.961 42.3027 167.372 41.4369C165.774 40.5621 164.364 39.4195 163.176 38.1431C161.945 36.8934 160.945 35.483 160.097 34.037C158.392 31.127 157.472 27.9671 157.098 24.9232C156.767 21.8615 157.017 18.8979 157.749 16.22C158.499 13.551 159.731 11.1945 161.195 9.23962C164.149 5.32096 167.845 3.00011 170.996 1.69687C174.183 0.393622 176.878 0.0901291 178.664 0.0187184C179.565 -0.0259132 180.252 0.0187193 180.717 0.0544246C181.181 0.0812036 181.413 0.10798 181.413 0.10798L181.395 0.12583Z" fill="#333F53"/>
<path d="M211.207 89.4429H86.0508V185.972H211.207V89.4429Z" fill="#D0D5DD"/>
<path d="M86.0508 89.4429L109.161 111.009H232.202L211.207 89.4429H86.0508Z" fill="#D0D5DD"/>
<path d="M86.0508 89.4425C88.3091 89.4425 140.002 89.3443 211.207 89.2104H211.305L211.376 89.2818C218.08 96.1641 225.043 103.314 232.157 110.616C232.228 110.687 232.3 110.768 232.371 110.839L232.755 111.232H232.202C181.75 111.196 136.975 111.16 109.17 111.142H109.116L109.081 111.107C94.6201 97.4941 86.8184 90.1566 86.0597 89.4425C86.8274 90.1477 94.6825 97.4227 109.268 110.901L109.17 110.866C136.975 110.848 181.75 110.812 232.202 110.776L232.032 111.169C231.961 111.098 231.889 111.026 231.818 110.946C224.704 103.635 217.75 96.4854 211.046 89.6032L211.207 89.6746C140.002 89.5407 88.3091 89.4515 86.0508 89.4425Z" fill="#333F53"/>
<path d="M123.635 133.958C122.314 133.958 121.1 135.155 121.082 136.476C121.056 137.797 122.225 139.029 123.546 139.082C124.867 139.127 126.126 137.984 126.197 136.663C126.269 135.342 125.153 134.066 123.832 133.967" fill="#333F53"/>
<path d="M153.19 133.958C151.869 133.958 150.655 135.155 150.637 136.476C150.61 137.797 151.78 139.029 153.101 139.082C154.422 139.127 155.681 137.984 155.752 136.663C155.823 135.342 154.708 134.066 153.386 133.967" fill="#333F53"/>
<path d="M153.378 157.06C153.244 157.113 153.048 154.641 150.896 151.508C149.843 149.955 148.263 148.303 146.165 146.973C144.086 145.634 141.434 144.679 138.578 144.572C135.722 144.518 133.026 145.331 130.875 146.554C128.705 147.768 127.045 149.33 125.903 150.82C123.591 153.829 123.251 156.283 123.127 156.221C123.109 156.221 123.135 156.069 123.198 155.801C123.278 155.534 123.332 155.114 123.528 154.614C123.85 153.597 124.51 152.168 125.644 150.615C126.768 149.062 128.456 147.437 130.66 146.17C132.856 144.893 135.632 144.036 138.587 144.099C141.542 144.206 144.264 145.215 146.389 146.607C148.522 148 150.12 149.714 151.155 151.32C152.209 152.927 152.78 154.391 153.048 155.426C153.217 155.935 153.253 156.355 153.306 156.631C153.351 156.908 153.369 157.051 153.36 157.06H153.378Z" fill="#333F53"/>
<path opacity="0.5" d="M86.3242 90.5044L108.462 118.569H211.204V111.008H109.158L86.3242 90.5044Z" fill="#333F53"/>
<path d="M186.529 185.758C186.404 185.758 186.297 168.968 186.297 148.259C186.297 127.55 186.404 110.759 186.529 110.759C186.654 110.759 186.761 127.55 186.761 148.259C186.761 168.968 186.654 185.758 186.529 185.758Z" fill="#333F53"/>
<path d="M206.174 163.871H195.141V176.341H206.174V163.871Z" fill="#F2F4F7"/>
<path d="M86.0505 89.4429L60.3516 111.009H86.0505V89.4429Z" fill="#D0D5DD"/>
<g opacity="0.4">
<path d="M86.0505 89.4429L60.3516 111.009H86.0505V89.4429Z" fill="#333F53"/>
</g>
</svg>
